<?xml version="1.0" encoding="utf-8"?>
<!-- Generator: Adobe Illustrator 16.0.0, SVG Export Plug-In . SVG Version: 6.00 Build 0)  -->
<!DOCTYPE svg PUBLIC "-//W3C//DTD SVG 1.1//EN" "http://www.w3.org/Graphics/SVG/1.1/DTD/svg11.dtd">
<svg version="1.1" id="Layer_1" xmlns="http://www.w3.org/2000/svg" xmlns:xlink="http://www.w3.org/1999/xlink" x="0px" y="0px"
	 width="129.82px" height="17.927px" viewBox="74.202 67.149 129.82 21.927" enable-background="new 74.202 67.149 129.82 21.927"
	 xml:space="preserve">
<g>
	<path fill="#FFFFFF" d="M76.636,75.042c-0.548-1.008-1.315-1.535-1.995-1.535h-0.438V72.63h8.552v0.877h-0.22
		c-0.68,0-0.898,0.307-0.898,0.724c0,0.548,0.372,1.293,0.592,1.798l0.986,2.237l0.987-1.864c0.307-0.592,0.768-1.425,0.768-2.061
		c0-0.483-0.286-0.834-1.119-0.834h-0.285V72.63h5.328v0.877H88.5c-0.658,0-1.579,0.22-2.281,1.535l-4.868,9.209L76.636,75.042z"/>
	<path fill="#FFFFFF" d="M87.472,83.813v-0.877h0.439c0.679,0,1.096-0.352,1.096-1.097v-5.701l-1.535-1.535
		c1.776-0.548,4.978-1.776,6.578-2.631v9.867c0,0.745,0.417,1.097,1.097,1.097h0.438v0.877H87.472z M89.007,69.89
		c0-1.403,1.118-2.522,2.521-2.522c1.404,0,2.522,1.119,2.522,2.522c0,1.403-1.118,2.521-2.522,2.521
		C90.125,72.411,89.007,71.293,89.007,69.89"/>
	<path fill="#FFFFFF" d="M103.48,83.813V82.65c-0.636,0.769-1.886,1.602-3.136,1.602c-3.311,0-5.086-2.564-5.086-5.701
		c0-3.793,2.587-6.359,6.578-6.359c0.525,0,0.965,0.088,1.425,0.22v-1.097l-1.535-1.535c1.776-0.548,4.978-1.776,6.578-2.631V81.84
		c0,0.746,0.416,1.098,1.097,1.098h0.438v0.877h-6.359V83.813z M103.262,78.003c0-3.596-0.548-4.342-1.403-4.342
		c-0.854,0-1.426,0.768-1.426,4.342c0,3.574,0.571,4.341,1.426,4.341C102.714,82.344,103.262,81.688,103.262,78.003"/>
	<path fill="#FFFFFF" d="M120.699,82.65c-1.054,0.877-2.216,1.602-4.716,1.602c-3.946,0-6.358-2.564-6.358-5.723
		c0-3.771,2.478-6.337,6.118-6.337c3.596,0,4.956,2.434,4.956,5.438h-6.271c0.328,3.354,2.039,4.736,3.793,4.736
		c0.877,0,1.863-0.285,2.479-0.789V82.65L120.699,82.65z M115.743,76.753c0.68,0,0.986-0.351,0.986-1.096
		c0-1.14-0.307-1.864-1.097-1.864c-0.789,0-1.271,0.833-1.271,2.368v0.592H115.743z"/>
	<path fill="#FFFFFF" d="M127.828,84.252c-3.991,0-6.578-2.564-6.578-6.029c0-3.464,2.587-6.03,6.578-6.03
		c3.989,0,6.556,2.566,6.556,6.03C134.384,81.688,131.818,84.252,127.828,84.252 M129.231,78.223c0-3.837-0.548-4.78-1.402-4.78
		c-0.855,0-1.404,0.943-1.404,4.78c0,3.814,0.549,4.779,1.404,4.779C128.683,83.002,129.231,82.061,129.231,78.223"/>
	<path fill="#FFFFFF" d="M140.572,83.331c0-1.425,1.031-2.304,1.776-2.851c-1.403-0.789-2.368-1.887-2.368-3.75
		c0-2.938,2.412-4.538,5.657-4.538c0.329,0,0.636,0.022,0.943,0.065c0.219-2.741,2.061-3.684,3.354-3.684
		c1.447,0,2.258,0.965,2.258,2.061c0,1.031-0.767,1.886-1.862,1.886c-0.92,0-1.229-0.723-1.49-1.008
		c-0.263-0.285-0.373-0.351-0.658-0.351c-0.329,0-0.636,0.526-0.68,1.272c2.215,0.57,3.793,1.864,3.793,4.297
		c0,2.851-2.435,4.54-5.657,4.54c-0.921,0-1.798-0.133-2.543-0.416c-0.286,0.22-0.483,0.459-0.483,0.832
		c0,0.701,0.506,0.834,0.966,0.834c1.446,0,3.113-0.922,5.064-0.922c1.688,0,3.399,1.075,3.399,3.18
		c0,2.609-2.785,4.299-5.899,4.299c-2.96,0-4.647-1.186-4.647-2.436c0-0.416,0.175-0.854,0.504-1.271
		C141.208,84.977,140.572,84.229,140.572,83.331 M143.511,86.116c0,1.228,0.854,1.974,2.63,1.974c1.975,0,2.808-0.834,2.808-1.755
		c0-0.702-0.395-1.206-1.338-1.206c-1.338,0-2.588,0.592-4.013,0.614C143.532,85.854,143.511,85.984,143.511,86.116 M146.909,76.841
		c0-2.873-0.638-3.267-1.272-3.267s-1.271,0.394-1.271,3.267s0.636,3.267,1.271,3.267S146.909,79.714,146.909,76.841"/>
	<path fill="#FFFFFF" d="M158.336,84.252c-3.99,0-6.578-2.564-6.578-6.029c0-3.464,2.588-6.03,6.578-6.03s6.557,2.566,6.557,6.03
		C164.893,81.688,162.326,84.252,158.336,84.252 M159.739,78.223c0-3.837-0.548-4.78-1.402-4.78s-1.403,0.943-1.403,4.78
		c0,3.814,0.549,4.779,1.403,4.779S159.739,82.061,159.739,78.223"/>
	<path fill="#FFFFFF" d="M172.132,84.252c-3.99,0-6.577-2.564-6.577-6.029c0-3.464,2.587-6.03,6.577-6.03s6.557,2.566,6.557,6.03
		C178.688,81.688,176.122,84.252,172.132,84.252 M173.535,78.223c0-3.837-0.549-4.78-1.403-4.78s-1.403,0.943-1.403,4.78
		c0,3.814,0.549,4.779,1.403,4.779S173.535,82.061,173.535,78.223"/>
	<path fill="#FFFFFF" d="M187.573,83.813V82.65c-0.638,0.769-1.888,1.602-3.138,1.602c-3.311,0-5.086-2.564-5.086-5.701
		c0-3.793,2.587-6.359,6.578-6.359c0.526,0,0.965,0.088,1.425,0.22v-1.097l-1.534-1.535c1.775-0.548,4.978-1.776,6.578-2.631V81.84
		c0,0.746,0.416,1.098,1.098,1.098h0.438v0.877h-6.358V83.813z M187.353,78.003c0-3.596-0.548-4.342-1.401-4.342
		c-0.856,0-1.427,0.768-1.427,4.342c0,3.574,0.569,4.341,1.427,4.341C186.805,82.344,187.353,81.688,187.353,78.003"/>
	<path fill="#FFFFFF" d="M202.202,76.029c-0.637-1.579-1.688-2.587-3.049-2.587c-0.833,0-1.338,0.504-1.338,1.14
		c0,0.701,0.308,0.855,2.063,1.469c2.784,0.987,4.145,2.149,4.145,4.014c0,2.696-2.588,4.188-5.46,4.188
		c-1.974,0-3.421-0.438-4.188-0.877v-2.96h0.965c0.965,1.425,1.776,2.587,3.42,2.587c0.878,0,1.558-0.438,1.558-1.229
		c0-0.547-0.352-0.768-1.863-1.381c-2.96-1.205-3.969-2.435-3.969-4.123c0-2.543,2.28-4.078,5.175-4.078
		c1.097,0,2.608,0.329,3.508,0.877v2.96H202.202z"/>
</g>
</svg>
