<?xml version="1.0" encoding="utf-8"?>
<!-- Generator: Adobe Illustrator 20.0.0, SVG Export Plug-In . SVG Version: 6.00 Build 0)  -->
<svg version="1.1" id="Capa_1" xmlns="http://www.w3.org/2000/svg" xmlns:xlink="http://www.w3.org/1999/xlink" x="0px" y="0px"
	 width="110px" height="18px" viewBox="0 0 136.6 21.9" style="enable-background:new 0 0 136.6 21.9;" xml:space="preserve">
<style type="text/css">
	.st0{fill:#343E40;}
</style>
<title>video_goodsID</title>
<path class="st0" d="M2.4,7.9c-0.3-0.8-1.1-1.4-2-1.5H0V5.5h8.6v0.9H8.3c-0.7,0-0.9,0.3-0.9,0.7C7.5,7.7,7.7,8.3,8,8.9l1,2.2l1-1.9
	c0.4-0.6,0.6-1.3,0.7-2.1c0-0.5-0.3-0.8-1.1-0.8H9.3V5.5h5.4v0.9h-0.4c-1,0-1.9,0.6-2.3,1.5l-4.9,9.2L2.4,7.9z"/>
<path class="st0" d="M13.9,16.7v-0.9h0.4c0.5,0.1,1-0.3,1.1-0.9c0-0.1,0-0.1,0-0.2V9l-1.5-1.5c2.3-0.7,4.5-1.6,6.6-2.6v9.9
	c-0.1,0.5,0.3,1,0.9,1.1c0.1,0,0.1,0,0.2,0h0.4v0.9L13.9,16.7z M15.5,2.7c0-1.4,1.1-2.5,2.5-2.5s2.5,1.1,2.5,2.5S19.4,5.3,18,5.3
	C16.6,5.3,15.5,4.1,15.5,2.7C15.5,2.8,15.5,2.7,15.5,2.7z"/>
<path class="st0" d="M30.6,16.7v-1.2c-0.8,0.9-1.9,1.5-3.1,1.6c-3.3,0-5.1-2.6-5.1-5.7C22.4,7.6,25,5,28.9,5c0.5,0,1,0.1,1.4,0.2
	V4.2l-1.5-1.5C31.1,1.9,33.3,1,35.4,0v14.7c-0.1,0.5,0.3,1,0.9,1.1c0.1,0,0.1,0,0.2,0H37v0.9L30.6,16.7z M30.4,10.9
	c0-3.6-0.5-4.3-1.4-4.3s-1.4,0.8-1.4,4.3s0.6,4.3,1.4,4.3C29.8,15.2,30.4,14.5,30.4,10.9z"/>
<path class="st0" d="M48.5,15.5c-1.3,1.1-3,1.7-4.7,1.6c-4,0-6.4-2.6-6.4-5.7c0-3.8,2.5-6.3,6.1-6.3s5,2.4,5,5.4h-6.3
	c0.3,3.4,2,4.7,3.8,4.7c0.9,0,1.8-0.3,2.5-0.8V15.5z M43.5,9.6c0.7,0,1-0.4,1-1.1c0-1.1-0.3-1.9-1.1-1.9S42.1,7.5,42.1,9v0.6H43.5z"
	/>
<path class="st0" d="M56.3,17.1c-4,0-6.6-2.6-6.6-6s2.6-6,6.6-6s6.6,2.6,6.6,6S60.2,17.1,56.3,17.1z M57.7,11.1
	c0-3.8-0.5-4.8-1.4-4.8s-1.4,0.9-1.4,4.8s0.5,4.8,1.4,4.8S57.7,14.9,57.7,11.1z"/>
<path class="st0" d="M70.5,16.2c0.1-1.2,0.8-2.2,1.8-2.9c-1.5-0.7-2.4-2.1-2.4-3.8c0-2.9,2.4-4.5,5.7-4.5c0.3,0,0.6,0,0.9,0.1
	c0.2-2.7,2.1-3.7,3.3-3.7C81,1.3,82,2.2,82.1,3.3c0,0.1,0,0.1,0,0.2c0,1-0.8,1.9-1.8,1.9c0,0,0,0-0.1,0c-0.9,0-1.2-0.7-1.5-1
	S78.4,4,78.1,4s-0.6,0.5-0.7,1.3c2.2,0.6,3.8,1.9,3.8,4.3c0,2.9-2.4,4.5-5.7,4.5c-0.9,0-1.7-0.1-2.5-0.4c-0.3,0.2-0.5,0.5-0.5,0.8
	c0,0.7,0.5,0.8,1,0.8c1.4,0,3.1-0.9,5.1-0.9c1.8-0.1,3.3,1.2,3.4,3c0,0.1,0,0.1,0,0.2c0,2.6-2.8,4.3-5.9,4.3c-3,0-4.7-1.2-4.7-2.4
	c0-0.5,0.2-0.9,0.5-1.3C71.2,17.9,70.6,17.1,70.5,16.2z M73.5,19c0,1.2,0.9,2,2.6,2c2,0,2.8-0.8,2.8-1.8c0-0.7-0.4-1.2-1.3-1.2
	c-1.3,0-2.6,0.6-4,0.6C73.5,18.7,73.5,18.8,73.5,19L73.5,19z M76.9,9.7c0-2.9-0.6-3.3-1.3-3.3s-1.3,0.4-1.3,3.3S75,13,75.6,13
	S76.9,12.6,76.9,9.7L76.9,9.7z"/>
<path class="st0" d="M89,17.1c-4,0-6.6-2.6-6.6-6s2.6-6,6.6-6s6.6,2.6,6.6,6S92.9,17.1,89,17.1z M90.4,11.1c0-3.8-0.6-4.8-1.4-4.8
	s-1.4,0.9-1.4,4.8s0.6,4.8,1.4,4.8S90.4,14.9,90.4,11.1z"/>
<path class="st0" d="M103.4,17.1c-4,0-6.6-2.6-6.6-6s2.6-6,6.6-6s6.6,2.6,6.6,6S107.4,17.1,103.4,17.1z M104.8,11.1
	c0-3.8-0.6-4.8-1.4-4.8s-1.4,0.9-1.4,4.8s0.6,4.8,1.4,4.8S104.8,14.9,104.8,11.1L104.8,11.1z"/>
<path class="st0" d="M119.5,16.7v-1.2c-0.8,0.9-1.9,1.5-3.1,1.6c-3.3,0-5.1-2.6-5.1-5.7c0-3.8,2.6-6.4,6.6-6.4c0.5,0,1,0.1,1.4,0.2
	V4.2l-1.5-1.5c2.3-0.7,4.5-1.6,6.6-2.6v14.7c-0.1,0.5,0.3,1,0.9,1.1c0.1,0,0.1,0,0.2,0h0.4v0.9L119.5,16.7z M119.3,10.9
	c0-3.6-0.6-4.3-1.4-4.3s-1.4,0.8-1.4,4.3s0.6,4.3,1.4,4.3S119.3,14.5,119.3,10.9z"/>
<path class="st0" d="M134.8,8.9c-0.6-1.6-1.7-2.6-3-2.6c-0.7-0.1-1.2,0.4-1.3,1c0,0,0,0.1,0,0.1c0,0.7,0.3,0.9,2.1,1.5
	c2.8,1,4.1,2.2,4.1,4c0,2.7-2.6,4.2-5.5,4.2c-1.4,0.1-2.9-0.2-4.2-0.9v-3h1c1,1.4,1.8,2.6,3.4,2.6c0.9,0,1.6-0.4,1.6-1.2
	c0-0.6-0.4-0.8-1.9-1.4c-3-1.2-4-2.4-4-4.1c0-2.5,2.3-4.1,5.2-4.1c1.2,0,2.4,0.3,3.5,0.9v3L134.8,8.9z"/>
</svg>
