<?xml version="1.0" encoding="utf-8"?>
<!-- Generator: Adobe Illustrator 23.0.2, SVG Export Plug-In . SVG Version: 6.00 Build 0)  -->
<svg version="1.1" id="Capa_1" xmlns="http://www.w3.org/2000/svg" xmlns:xlink="http://www.w3.org/1999/xlink" x="0px" y="0px"
     viewBox="0 0 25 25" style="enable-background:new 0 0 25 25;" xml:space="preserve">
<style type="text/css">
	.st0{fill:#82878c;}
	.st1{fill:#f7f7f7;}
</style>
    <title>video_goodsID-browser</title>
    <rect class="st0" width="25" height="25"/>
    <g>
	<path class="st1" d="M18.1,7.4H13c0,0-0.1,0-0.1,0.1v0.7c0,0.1,0,0.1-0.1,0.1h-0.4h-0.4c-0.1,0-0.1,0-0.1-0.1V7.5
		c0,0,0-0.1-0.1-0.1H6.9c0,0-0.1,0-0.1,0.1c0,0,0,0.6,0,0.7c0,0,0,0.1,0.1,0.1c0.2,0,0.7,0,0.8,0c0.1,0,0.1,0.1,0.1,0.1
		c0.1,0.1,4.6,9.2,4.6,9.2c0,0,0,0,0.1,0c0,0,0,0,0.1,0c0,0,4.5-9.1,4.6-9.2c0-0.1,0.1-0.1,0.1-0.1c0.1,0,0.6,0,0.8,0
		c0,0,0.1,0,0.1-0.1C18.1,8.1,18.1,7.5,18.1,7.4C18.1,7.4,18.1,7.4,18.1,7.4z"/>
</g>
</svg>
