<svg xmlns="http://www.w3.org/2000/svg" xmlns:xlink="http://www.w3.org/1999/xlink" width="120" height="21" viewBox="0 0 120 21"><defs><path id="1vd9a" d="M903.014 304.932c-.5-.92-1.2-1.4-1.82-1.4h-.4v-.8h7.8v.8h-.2c-.62 0-.82.28-.82.66 0 .5.34 1.18.54 1.64l.9 2.04.9-1.7c.28-.54.7-1.3.7-1.88 0-.44-.26-.76-1.02-.76h-.26v-.8h4.86v.8h-.36c-.6 0-1.44.2-2.08 1.4l-4.44 8.4z"/><path id="1vd9b" d="M912.897 312.931v-.8h.4c.62 0 1-.32 1-1v-5.2l-1.4-1.399c1.62-.5 4.54-1.62 6-2.4v9c0 .68.38 1 1 1h.4v.8zm1.4-12.699c0-1.28 1.02-2.3 2.3-2.3 1.28 0 2.3 1.02 2.3 2.3 0 1.28-1.02 2.3-2.3 2.3-1.28 0-2.3-1.02-2.3-2.3z"/><path id="1vd9c" d="M927.5 312.932v-1.06c-.58.7-1.72 1.46-2.86 1.46-3.021 0-4.64-2.34-4.64-5.2 0-3.46 2.36-5.8 6-5.8.48 0 .88.08 1.3.2v-1.001l-1.4-1.4c1.62-.5 4.54-1.62 6-2.4v13.4c0 .68.379 1 1 1h.4v.8zm-.2-5.3c0-3.28-.5-3.96-1.28-3.96s-1.3.7-1.3 3.96.52 3.96 1.3 3.96 1.28-.6 1.28-3.96z"/><path id="1vd9d" d="M943.204 311.872c-.96.8-2.02 1.46-4.3 1.46-3.6 0-5.8-2.34-5.8-5.22 0-3.44 2.26-5.78 5.58-5.78 3.28 0 4.52 2.22 4.52 4.96h-5.72c.3 3.06 1.86 4.32 3.46 4.32.8 0 1.7-.26 2.26-.72zm-4.52-5.38c.62 0 .9-.32.9-1 0-1.04-.28-1.7-1-1.7s-1.16.76-1.16 2.16v.54z"/><path id="1vd9e" d="M949.707 313.332c-3.64 0-6-2.34-6-5.5s2.36-5.5 6-5.5 5.98 2.34 5.98 5.5-2.34 5.5-5.98 5.5zm1.28-5.5c0-3.5-.5-4.36-1.28-4.36s-1.28.86-1.28 4.36c0 3.48.5 4.359 1.28 4.359s1.28-.859 1.28-4.359z"/><path id="1vd9f" d="M962.951 309.891c-1.28-.719-2.16-1.719-2.16-3.42 0-2.679 2.2-4.139 5.16-4.139.3 0 .58.02.86.06.2-2.5 1.88-3.36 3.06-3.36 1.32 0 2.06.88 2.06 1.88 0 .94-.7 1.72-1.7 1.72-.84 0-1.12-.66-1.36-.92-.239-.26-.34-.32-.6-.32-.3 0-.58.48-.62 1.16 2.02.52 3.46 1.7 3.46 3.92 0 2.6-2.22 4.14-5.16 4.14-.84 0-1.64-.12-2.32-.38-.26.2-.44.42-.44.76 0 .64.46.76.88.76 1.32 0 2.84-.84 4.62-.84 1.54 0 3.1.98 3.1 2.9 0 2.38-2.54 3.92-5.38 3.92-2.7 0-4.24-1.08-4.24-2.22 0-.38.16-.78.46-1.16-.72-.36-1.3-1.04-1.3-1.86 0-1.3.94-2.1 1.62-2.6zm3.46 6.941c1.8 0 2.56-.76 2.56-1.6 0-.64-.36-1.1-1.22-1.1-1.22 0-2.36.54-3.66.56a.667.667 0 0 0-.08.34c0 1.12.78 1.8 2.4 1.8zm-.46-13.24c-.58 0-1.16.36-1.16 2.98s.58 2.98 1.16 2.98 1.16-.36 1.16-2.98-.58-2.98-1.16-2.98z"/><path id="1vd9g" d="M977.534 313.332c-3.64 0-6-2.34-6-5.5s2.36-5.5 6-5.5 5.98 2.34 5.98 5.5-2.34 5.5-5.98 5.5zm1.28-5.5c0-3.5-.5-4.36-1.28-4.36s-1.28.86-1.28 4.36c0 3.48.5 4.359 1.28 4.359s1.28-.859 1.28-4.359z"/><path id="1vd9h" d="M990.118 313.332c-3.64 0-6-2.34-6-5.5s2.36-5.5 6-5.5 5.98 2.34 5.98 5.5-2.34 5.5-5.98 5.5zm1.28-5.5c0-3.5-.5-4.36-1.28-4.36s-1.28.86-1.28 4.36c0 3.48.5 4.359 1.28 4.359s1.28-.859 1.28-4.359z"/><path id="1vd9i" d="M1004.202 312.932v-1.06c-.58.7-1.721 1.46-2.86 1.46-3.021 0-4.641-2.34-4.641-5.2 0-3.46 2.361-5.8 6-5.8.481 0 .881.08 1.301.2v-1.001l-1.4-1.4c1.62-.5 4.54-1.62 6-2.4v13.4c0 .68.379 1 1 1h.4v.8zm-.2-5.3c0-3.28-.5-3.96-1.28-3.96-.781 0-1.3.7-1.3 3.96s.519 3.96 1.3 3.96c.78 0 1.28-.6 1.28-3.96z"/><path id="1vd9j" d="M1017.546 305.832c-.58-1.44-1.54-2.36-2.78-2.36-.76 0-1.22.46-1.22 1.04 0 .639.28.78 1.88 1.34 2.54.9 3.78 1.959 3.78 3.66 0 2.461-2.36 3.82-4.98 3.82-1.8 0-3.12-.4-3.821-.8v-2.7h.88c.88 1.3 1.62 2.359 3.12 2.359.8 0 1.42-.399 1.42-1.119 0-.5-.32-.7-1.7-1.26-2.7-1.1-3.62-2.22-3.62-3.76 0-2.321 2.08-3.72 4.72-3.72 1 0 2.38.3 3.2.8v2.7z"/></defs><g><g transform="translate(-900 -297)"><use fill="#fff" xlink:href="#1vd9a"/></g><g transform="translate(-900 -297)"><use fill="#fff" xlink:href="#1vd9b"/></g><g transform="translate(-900 -297)"><use fill="#fff" xlink:href="#1vd9c"/></g><g transform="translate(-900 -297)"><use fill="#fff" xlink:href="#1vd9d"/></g><g transform="translate(-900 -297)"><use fill="#fff" xlink:href="#1vd9e"/></g><g transform="translate(-900 -297)"><use fill="#fff" xlink:href="#1vd9f"/></g><g transform="translate(-900 -297)"><use fill="#fff" xlink:href="#1vd9g"/></g><g transform="translate(-900 -297)"><use fill="#fff" xlink:href="#1vd9h"/></g><g transform="translate(-900 -297)"><use fill="#fff" xlink:href="#1vd9i"/></g><g transform="translate(-900 -297)"><use fill="#fff" xlink:href="#1vd9j"/></g></g></svg>